<svg xmlns="http://www.w3.org/2000/svg">

    <symbol id="star">
        <path d="M3.612 15.443c-.386.198-.824-.149-.746-.592l.83-4.73L.173 6.765c-.329-.314-.158-.888.283-.95l4.898-.696L7.538.792c.197-.39.73-.39.927 0l2.184 4.327 4.898.696c.441.062.612.636.282.95l-3.522 3.356.83 4.73c.078.443-.36.79-.746.592L8 13.187l-4.389 2.256z"/>
    </symbol>

    <symbol id="geo">
        <path d="M8 16s6-5.686 6-10A6 6 0 0 0 2 6c0 4.314 6 10 6 10m0-7a3 3 0 1 1 0-6 3 3 0 0 1 0 6"/>
    </symbol>

    <symbol id="serv_one">
        <path d="M8.06 6.5a.5.5 0 0 1 .5.5v.776a11.5 11.5 0 0 1-.552 3.519l-1.331 4.14a.5.5 0 0 1-.952-.305l1.33-4.141a10.5 10.5 0 0 0 .504-3.213V7a.5.5 0 0 1 .5-.5Z"/>
        <path d="M6.06 7a2 2 0 1 1 4 0 .5.5 0 1 1-1 0 1 1 0 1 0-2 0v.332q0 .613-.066 1.221A.5.5 0 0 1 6 8.447q.06-.555.06-1.115zm3.509 1a.5.5 0 0 1 .487.513 11.5 11.5 0 0 1-.587 3.339l-1.266 3.8a.5.5 0 0 1-.949-.317l1.267-3.8a10.5 10.5 0 0 0 .535-3.048A.5.5 0 0 1 9.569 8m-3.356 2.115a.5.5 0 0 1 .33.626L5.24 14.939a.5.5 0 1 1-.955-.296l1.303-4.199a.5.5 0 0 1 .625-.329"/>
        <path d="M4.759 5.833A3.501 3.501 0 0 1 11.559 7a.5.5 0 0 1-1 0 2.5 2.5 0 0 0-4.857-.833.5.5 0 1 1-.943-.334m.3 1.67a.5.5 0 0 1 .449.546 10.7 10.7 0 0 1-.4 2.031l-1.222 4.072a.5.5 0 1 1-.958-.287L4.15 9.793a9.7 9.7 0 0 0 .363-1.842.5.5 0 0 1 .546-.449Zm6 .647a.5.5 0 0 1 .5.5c0 1.28-.213 2.552-.632 3.762l-1.09 3.145a.5.5 0 0 1-.944-.327l1.089-3.145c.382-1.105.578-2.266.578-3.435a.5.5 0 0 1 .5-.5Z"/>
        <path d="M3.902 4.222a5 5 0 0 1 5.202-2.113.5.5 0 0 1-.208.979 4 4 0 0 0-4.163 1.69.5.5 0 0 1-.831-.556m6.72-.955a.5.5 0 0 1 .705-.052A4.99 4.99 0 0 1 13.059 7v1.5a.5.5 0 1 1-1 0V7a3.99 3.99 0 0 0-1.386-3.028.5.5 0 0 1-.051-.705M3.68 5.842a.5.5 0 0 1 .422.568q-.044.289-.044.59c0 .71-.1 1.417-.298 2.1l-1.14 3.923a.5.5 0 1 1-.96-.279L2.8 8.821A6.5 6.5 0 0 0 3.058 7q0-.375.054-.736a.5.5 0 0 1 .568-.422m8.882 3.66a.5.5 0 0 1 .456.54c-.084 1-.298 1.986-.64 2.934l-.744 2.068a.5.5 0 0 1-.941-.338l.745-2.07a10.5 10.5 0 0 0 .584-2.678.5.5 0 0 1 .54-.456"/>
        <path d="M4.81 1.37A6.5 6.5 0 0 1 14.56 7a.5.5 0 1 1-1 0 5.5 5.5 0 0 0-8.25-4.765.5.5 0 0 1-.5-.865m-.89 1.257a.5.5 0 0 1 .04.706A5.48 5.48 0 0 0 2.56 7a.5.5 0 0 1-1 0c0-1.664.626-3.184 1.655-4.333a.5.5 0 0 1 .706-.04ZM1.915 8.02a.5.5 0 0 1 .346.616l-.779 2.767a.5.5 0 1 1-.962-.27l.778-2.767a.5.5 0 0 1 .617-.346m12.15.481a.5.5 0 0 1 .49.51c-.03 1.499-.161 3.025-.727 4.533l-.07.187a.5.5 0 0 1-.936-.351l.07-.187c.506-1.35.634-2.74.663-4.202a.5.5 0 0 1 .51-.49"/>
    </symbol>

    <symbol id="serv_two">
        <path d="M2 1.5a.5.5 0 0 1 .5-.5h3a.5.5 0 0 1 .5.5V5h.5A1.5 1.5 0 0 1 8 6.5V7H7v-.5a.5.5 0 0 0-.5-.5h-5a.5.5 0 0 0-.5.5v7a.5.5 0 0 0 .5.5H4v1H2.5v.25a.75.75 0 0 1-1.5 0v-.335A1.5 1.5 0 0 1 0 13.5v-7A1.5 1.5 0 0 1 1.5 5H2zM3 5h2V2H3z"/>
        <path d="M2.5 7a.5.5 0 0 1 .5.5v5a.5.5 0 0 1-1 0v-5a.5.5 0 0 1 .5-.5m10 1v-.5A1.5 1.5 0 0 0 11 6h-1a1.5 1.5 0 0 0-1.5 1.5V8H8v8h5V8zM10 7h1a.5.5 0 0 1 .5.5V8h-2v-.5A.5.5 0 0 1 10 7M5 9.5A1.5 1.5 0 0 1 6.5 8H7v8h-.5A1.5 1.5 0 0 1 5 14.5zm9 6.5V8h.5A1.5 1.5 0 0 1 16 9.5v5a1.5 1.5 0 0 1-1.5 1.5z"/>>
    </symbol>

    <symbol id="serv_three">
          <path d="M3 2.5a2.5 2.5 0 0 1 5 0 2.5 2.5 0 0 1 5 0v.006c0 .07 0 .27-.038.494H15a1 1 0 0 1 1 1v1a1 1 0 0 1-1 1H1a1 1 0 0 1-1-1V4a1 1 0 0 1 1-1h2.038A3 3 0 0 1 3 2.506zm1.068.5H7v-.5a1.5 1.5 0 1 0-3 0c0 .085.002.274.045.43zM9 3h2.932l.023-.07c.043-.156.045-.345.045-.43a1.5 1.5 0 0 0-3 0zm6 4v7.5a1.5 1.5 0 0 1-1.5 1.5H9V7zM2.5 16A1.5 1.5 0 0 1 1 14.5V7h6v9z"/>
    </symbol>

    <symbol id="serv_four">
        <path d="M8 1a5 5 0 0 0-5 5v1h1a1 1 0 0 1 1 1v3a1 1 0 0 1-1 1H3a1 1 0 0 1-1-1V6a6 6 0 1 1 12 0v6a2.5 2.5 0 0 1-2.5 2.5H9.366a1 1 0 0 1-.866.5h-1a1 1 0 1 1 0-2h1a1 1 0 0 1 .866.5H11.5A1.5 1.5 0 0 0 13 12h-1a1 1 0 0 1-1-1V8a1 1 0 0 1 1-1h1V6a5 5 0 0 0-5-5"/>
    </symbol>

    <symbol id="header">
        <path fill-rule="evenodd" d="M2.5 12a.5.5 0 0 1 .5-.5h10a.5.5 0 0 1 0 1H3a.5.5 0 0 1-.5-.5m0-4a.5.5 0 0 1 .5-.5h10a.5.5 0 0 1 0 1H3a.5.5 0 0 1-.5-.5m0-4a.5.5 0 0 1 .5-.5h10a.5.5 0 0 1 0 1H3a.5.5 0 0 1-.5-.5"/>
    </symbol>

    <symbol id="header_close">
        <path d="M8 15A7 7 0 1 1 8 1a7 7 0 0 1 0 14m0 1A8 8 0 1 0 8 0a8 8 0 0 0 0 16"/>
        <path d="M4.646 4.646a.5.5 0 0 1 .708 0L8 7.293l2.646-2.647a.5.5 0 0 1 .708.708L8.707 8l2.647 2.646a.5.5 0 0 1-.708.708L8 8.707l-2.646 2.647a.5.5 0 0 1-.708-.708L7.293 8 4.646 5.354a.5.5 0 0 1 0-.708"/>
    </symbol>

    <symbol id="phone">
        <path d="M15.854.146a.5.5 0 0 1 0 .708L11.707 5H14.5a.5.5 0 0 1 0 1h-4a.5.5 0 0 1-.5-.5v-4a.5.5 0 0 1 1 0v2.793L15.146.146a.5.5 0 0 1 .708 0m-12.2 1.182a.678.678 0 0 0-1.015-.063L1.605 2.3c-.483.484-.661 1.169-.45 1.77a17.6 17.6 0 0 0 4.168 6.608 17.6 17.6 0 0 0 6.608 4.168c.601.211 1.286.033 1.77-.45l1.034-1.034a.678.678 0 0 0-.063-1.015l-2.307-1.794a.68.68 0 0 0-.58-.122l-2.19.547a1.75 1.75 0 0 1-1.657-.459L5.482 8.062a1.75 1.75 0 0 1-.46-1.657l.548-2.19a.68.68 0 0 0-.122-.58zM1.884.511a1.745 1.745 0 0 1 2.612.163L6.29 2.98c.329.423.445.974.315 1.494l-.547 2.19a.68.68 0 0 0 .178.643l2.457 2.457a.68.68 0 0 0 .644.178l2.189-.547a1.75 1.75 0 0 1 1.494.315l2.306 1.794c.829.645.905 1.87.163 2.611l-1.034 1.034c-.74.74-1.846 1.065-2.877.702a18.6 18.6 0 0 1-7.01-4.42 18.6 18.6 0 0 1-4.42-7.009c-.362-1.03-.037-2.137.703-2.877z"/>
    </symbol>

    <symbol id="envelope">
        <path d="M0 4a2 2 0 0 1 2-2h12a2 2 0 0 1 2 2v8a2 2 0 0 1-2 2H2a2 2 0 0 1-2-2zm2-1a1 1 0 0 0-1 1v.217l7 4.2 7-4.2V4a1 1 0 0 0-1-1zm13 2.383-4.708 2.825L15 11.105zm-.034 6.876-5.64-3.471L8 9.583l-1.326-.795-5.64 3.47A1 1 0 0 0 2 13h12a1 1 0 0 0 .966-.741M1 11.105l4.708-2.897L1 5.383z"/>
    </symbol>

    <symbol id="geo-white">
        <path d="M12.166 8.94c-.524 1.062-1.234 2.12-1.96 3.07A32 32 0 0 1 8 14.58a32 32 0 0 1-2.206-2.57c-.726-.95-1.436-2.008-1.96-3.07C3.304 7.867 3 6.862 3 6a5 5 0 0 1 10 0c0 .862-.305 1.867-.834 2.94M8 16s6-5.686 6-10A6 6 0 0 0 2 6c0 4.314 6 10 6 10"/>
        <path d="M8 8a2 2 0 1 1 0-4 2 2 0 0 1 0 4m0 1a3 3 0 1 0 0-6 3 3 0 0 0 0 6"/>
    </symbol>

    <symbol id="arrow">
        <path d="M8 0a8 8 0 1 1 0 16A8 8 0 0 1 8 0M4.5 7.5a.5.5 0 0 0 0 1h5.793l-2.147 2.146a.5.5 0 0 0 .708.708l3-3a.5.5 0 0 0 0-.708l-3-3a.5.5 0 1 0-.708.708L10.293 7.5z"/>
    </symbol>

    <symbol id="arrow-left">
        <path d="M8 0a8 8 0 1 0 0 16A8 8 0 0 0 8 0m3.5 7.5a.5.5 0 0 1 0 1H5.707l2.147 2.146a.5.5 0 0 1-.708.708l-3-3a.5.5 0 0 1 0-.708l3-3a.5.5 0 1 1 .708.708L5.707 7.5z"/>
    </symbol>

    <symbol id="time">
        <path d="M8 3.5a.5.5 0 0 0-1 0V9a.5.5 0 0 0 .252.434l3.5 2a.5.5 0 0 0 .496-.868L8 8.71z"/>
        <path d="M8 16A8 8 0 1 0 8 0a8 8 0 0 0 0 16m7-8A7 7 0 1 1 1 8a7 7 0 0 1 14 0"/>
    </symbol>

    <symbol id="contact">
        <path d="M14 1a1 1 0 0 1 1 1v8a1 1 0 0 1-1 1h-2.5a2 2 0 0 0-1.6.8L8 14.333 6.1 11.8a2 2 0 0 0-1.6-.8H2a1 1 0 0 1-1-1V2a1 1 0 0 1 1-1zM2 0a2 2 0 0 0-2 2v8a2 2 0 0 0 2 2h2.5a1 1 0 0 1 .8.4l1.9 2.533a1 1 0 0 0 1.6 0l1.9-2.533a1 1 0 0 1 .8-.4H14a2 2 0 0 0 2-2V2a2 2 0 0 0-2-2z"/>
        <path d="M3 3.5a.5.5 0 0 1 .5-.5h9a.5.5 0 0 1 0 1h-9a.5.5 0 0 1-.5-.5M3 6a.5.5 0 0 1 .5-.5h9a.5.5 0 0 1 0 1h-9A.5.5 0 0 1 3 6m0 2.5a.5.5 0 0 1 .5-.5h5a.5.5 0 0 1 0 1h-5a.5.5 0 0 1-.5-.5"/>
    </symbol>

    <symbol id="place">
        <path fill-rule="evenodd" d="M3.1 11.2a.5.5 0 0 1 .4-.2H6a.5.5 0 0 1 0 1H3.75L1.5 15h13l-2.25-3H10a.5.5 0 0 1 0-1h2.5a.5.5 0 0 1 .4.2l3 4a.5.5 0 0 1-.4.8H.5a.5.5 0 0 1-.4-.8z"/>
        <path fill-rule="evenodd" d="M8 1a3 3 0 1 0 0 6 3 3 0 0 0 0-6M4 4a4 4 0 1 1 4.5 3.969V13.5a.5.5 0 0 1-1 0V7.97A4 4 0 0 1 4 3.999z"/>
    </symbol>

    <symbol id="edit">
        <path d="M15.502 1.94a.5.5 0 0 1 0 .706L14.459 3.69l-2-2L13.502.646a.5.5 0 0 1 .707 0l1.293 1.293zm-1.75 2.456-2-2L4.939 9.21a.5.5 0 0 0-.121.196l-.805 2.414a.25.25 0 0 0 .316.316l2.414-.805a.5.5 0 0 0 .196-.12l6.813-6.814z"/>
        <path fill-rule="evenodd" d="M1 13.5A1.5 1.5 0 0 0 2.5 15h11a1.5 1.5 0 0 0 1.5-1.5v-6a.5.5 0 0 0-1 0v6a.5.5 0 0 1-.5.5h-11a.5.5 0 0 1-.5-.5v-11a.5.5 0 0 1 .5-.5H9a.5.5 0 0 0 0-1H2.5A1.5 1.5 0 0 0 1 2.5z"/>
    </symbol>

    <symbol id="passport">
        <path d="M8 5a3 3 0 1 0 0 6 3 3 0 0 0 0-6M6 8a2 2 0 1 1 4 0 2 2 0 0 1-4 0m-.5 4a.5.5 0 0 0 0 1h5a.5.5 0 0 0 0-1z"/>
        <path d="M3.232 1.776A1.5 1.5 0 0 0 2 3.252v10.95c0 .445.191.838.49 1.11.367.422.908.688 1.51.688h8a2 2 0 0 0 2-2V4a2 2 0 0 0-1-1.732v-.47A1.5 1.5 0 0 0 11.232.321l-8 1.454ZM4 3h8a1 1 0 0 1 1 1v10a1 1 0 0 1-1 1H4a1 1 0 0 1-1-1V4a1 1 0 0 1 1-1"/>
    </symbol>

    <symbol id="excursion">
        <path d="M4.04 7.43a4 4 0 0 1 7.92 0 .5.5 0 1 1-.99.14 3 3 0 0 0-5.94 0 .5.5 0 1 1-.99-.14"/>
        <path fill-rule="evenodd" d="M4 9.5a.5.5 0 0 1 .5-.5h7a.5.5 0 0 1 .5.5v4a.5.5 0 0 1-.5.5h-7a.5.5 0 0 1-.5-.5zm1 .5v3h6v-3h-1v.5a.5.5 0 0 1-1 0V10z"/>
        <path d="M6 2.341V2a2 2 0 1 1 4 0v.341c2.33.824 4 3.047 4 5.659v1.191l1.17.585a1.5 1.5 0 0 1 .83 1.342V13.5a1.5 1.5 0 0 1-1.5 1.5h-1c-.456.607-1.182 1-2 1h-7a2.5 2.5 0 0 1-2-1h-1A1.5 1.5 0 0 1 0 13.5v-2.382a1.5 1.5 0 0 1 .83-1.342L2 9.191V8a6 6 0 0 1 4-5.659M7 2v.083a6 6 0 0 1 2 0V2a1 1 0 0 0-2 0M3 13.5A1.5 1.5 0 0 0 4.5 15h7a1.5 1.5 0 0 0 1.5-1.5V8A5 5 0 0 0 3 8zm-1-3.19-.724.362a.5.5 0 0 0-.276.447V13.5a.5.5 0 0 0 .5.5H2zm12 0V14h.5a.5.5 0 0 0 .5-.5v-2.382a.5.5 0 0 0-.276-.447L14 10.309Z"/>
    </symbol>

    <symbol id="sanidad">
        <path d="M8.5 5.034v1.1l.953-.55.5.867L9 7l.953.55-.5.866-.953-.55v1.1h-1v-1.1l-.953.55-.5-.866L7 7l-.953-.55.5-.866.953.55v-1.1zM13.25 9a.25.25 0 0 0-.25.25v.5c0 .138.112.25.25.25h.5a.25.25 0 0 0 .25-.25v-.5a.25.25 0 0 0-.25-.25zM13 11.25a.25.25 0 0 1 .25-.25h.5a.25.25 0 0 1 .25.25v.5a.25.25 0 0 1-.25.25h-.5a.25.25 0 0 1-.25-.25zm.25 1.75a.25.25 0 0 0-.25.25v.5c0 .138.112.25.25.25h.5a.25.25 0 0 0 .25-.25v-.5a.25.25 0 0 0-.25-.25zm-11-4a.25.25 0 0 0-.25.25v.5c0 .138.112.25.25.25h.5A.25.25 0 0 0 3 9.75v-.5A.25.25 0 0 0 2.75 9zm0 2a.25.25 0 0 0-.25.25v.5c0 .138.112.25.25.25h.5a.25.25 0 0 0 .25-.25v-.5a.25.25 0 0 0-.25-.25zM2 13.25a.25.25 0 0 1 .25-.25h.5a.25.25 0 0 1 .25.25v.5a.25.25 0 0 1-.25.25h-.5a.25.25 0 0 1-.25-.25z"/>
        <path d="M5 1a1 1 0 0 1 1-1h4a1 1 0 0 1 1 1v1a1 1 0 0 1 1 1v4h3a1 1 0 0 1 1 1v7a1 1 0 0 1-1 1H1a1 1 0 0 1-1-1V8a1 1 0 0 1 1-1h3V3a1 1 0 0 1 1-1zm2 14h2v-3H7zm3 0h1V3H5v12h1v-3a1 1 0 0 1 1-1h2a1 1 0 0 1 1 1zm0-14H6v1h4zm2 7v7h3V8zm-8 7V8H1v7z"/>
    </symbol>

    <symbol id="museo">
        <path d="m8 0 6.61 3h.89a.5.5 0 0 1 .5.5v2a.5.5 0 0 1-.5.5H15v7a.5.5 0 0 1 .485.38l.5 2a.498.498 0 0 1-.485.62H.5a.498.498 0 0 1-.485-.62l.5-2A.5.5 0 0 1 1 13V6H.5a.5.5 0 0 1-.5-.5v-2A.5.5 0 0 1 .5 3h.89zM3.777 3h8.447L8 1zM2 6v7h1V6zm2 0v7h2.5V6zm3.5 0v7h1V6zm2 0v7H12V6zM13 6v7h1V6zm2-1V4H1v1zm-.39 9H1.39l-.25 1h13.72z"/>
    </symbol>

    <symbol id="desayuno">
        <path fill-rule="evenodd" d="M.5 6a.5.5 0 0 0-.488.608l1.652 7.434A2.5 2.5 0 0 0 4.104 16h5.792a2.5 2.5 0 0 0 2.44-1.958l.131-.59a3 3 0 0 0 1.3-5.854l.221-.99A.5.5 0 0 0 13.5 6zM13 12.5a2 2 0 0 1-.316-.025l.867-3.898A2.001 2.001 0 0 1 13 12.5M2.64 13.825 1.123 7h11.754l-1.517 6.825A1.5 1.5 0 0 1 9.896 15H4.104a1.5 1.5 0 0 1-1.464-1.175"/>
        <path d="m4.4.8-.003.004-.014.019a4 4 0 0 0-.204.31 2 2 0 0 0-.141.267c-.026.06-.034.092-.037.103v.004a.6.6 0 0 0 .091.248c.075.133.178.272.308.445l.01.012c.118.158.26.347.37.543.112.2.22.455.22.745 0 .188-.065.368-.119.494a3 3 0 0 1-.202.388 5 5 0 0 1-.253.382l-.018.025-.005.008-.002.002A.5.5 0 0 1 3.6 4.2l.003-.004.014-.019a4 4 0 0 0 .204-.31 2 2 0 0 0 .141-.267c.026-.06.034-.092.037-.103a.6.6 0 0 0-.09-.252A4 4 0 0 0 3.6 2.8l-.01-.012a5 5 0 0 1-.37-.543A1.53 1.53 0 0 1 3 1.5c0-.188.065-.368.119-.494.059-.138.134-.274.202-.388a6 6 0 0 1 .253-.382l.025-.035A.5.5 0 0 1 4.4.8m3 0-.003.004-.014.019a4 4 0 0 0-.204.31 2 2 0 0 0-.141.267c-.026.06-.034.092-.037.103v.004a.6.6 0 0 0 .091.248c.075.133.178.272.308.445l.01.012c.118.158.26.347.37.543.112.2.22.455.22.745 0 .188-.065.368-.119.494a3 3 0 0 1-.202.388 5 5 0 0 1-.253.382l-.018.025-.005.008-.002.002A.5.5 0 0 1 6.6 4.2l.003-.004.014-.019a4 4 0 0 0 .204-.31 2 2 0 0 0 .141-.267c.026-.06.034-.092.037-.103a.6.6 0 0 0-.09-.252A4 4 0 0 0 6.6 2.8l-.01-.012a5 5 0 0 1-.37-.543A1.53 1.53 0 0 1 6 1.5c0-.188.065-.368.119-.494.059-.138.134-.274.202-.388a6 6 0 0 1 .253-.382l.025-.035A.5.5 0 0 1 7.4.8m3 0-.003.004-.014.019a4 4 0 0 0-.204.31 2 2 0 0 0-.141.267c-.026.06-.034.092-.037.103v.004a.6.6 0 0 0 .091.248c.075.133.178.272.308.445l.01.012c.118.158.26.347.37.543.112.2.22.455.22.745 0 .188-.065.368-.119.494a3 3 0 0 1-.202.388 5 5 0 0 1-.252.382l-.019.025-.005.008-.002.002A.5.5 0 0 1 9.6 4.2l.003-.004.014-.019a4 4 0 0 0 .204-.31 2 2 0 0 0 .141-.267c.026-.06.034-.092.037-.103a.6.6 0 0 0-.09-.252A4 4 0 0 0 9.6 2.8l-.01-.012a5 5 0 0 1-.37-.543A1.53 1.53 0 0 1 9 1.5c0-.188.065-.368.119-.494.059-.138.134-.274.202-.388a6 6 0 0 1 .253-.382l.025-.035A.5.5 0 0 1 10.4.8"/>
    </symbol>

    <symbol id="dinero">
        <path fill-rule="evenodd" d="M11 15a4 4 0 1 0 0-8 4 4 0 0 0 0 8m5-4a5 5 0 1 1-10 0 5 5 0 0 1 10 0"/>
        <path d="M9.438 11.944c.047.596.518 1.06 1.363 1.116v.44h.375v-.443c.875-.061 1.386-.529 1.386-1.207 0-.618-.39-.936-1.09-1.1l-.296-.07v-1.2c.376.043.614.248.671.532h.658c-.047-.575-.54-1.024-1.329-1.073V8.5h-.375v.45c-.747.073-1.255.522-1.255 1.158 0 .562.378.92 1.007 1.066l.248.061v1.272c-.384-.058-.639-.27-.696-.563h-.668zm1.36-1.354c-.369-.085-.569-.26-.569-.522 0-.294.216-.514.572-.578v1.1zm.432.746c.449.104.655.272.655.569 0 .339-.257.571-.709.614v-1.195z"/>
        <path d="M1 0a1 1 0 0 0-1 1v8a1 1 0 0 0 1 1h4.083q.088-.517.258-1H3a2 2 0 0 0-2-2V3a2 2 0 0 0 2-2h10a2 2 0 0 0 2 2v3.528c.38.34.717.728 1 1.154V1a1 1 0 0 0-1-1z"/>
        <path d="M9.998 5.083 10 5a2 2 0 1 0-3.132 1.65 6 6 0 0 1 3.13-1.567"/>
    </symbol>

    <symbol id="hotel">
        <path d="M8.707 1.5a1 1 0 0 0-1.414 0L.646 8.146a.5.5 0 0 0 .708.708L2 8.207V13.5A1.5 1.5 0 0 0 3.5 15h4a.5.5 0 1 0 0-1h-4a.5.5 0 0 1-.5-.5V7.207l5-5 6.646 6.647a.5.5 0 0 0 .708-.708L13 5.793V2.5a.5.5 0 0 0-.5-.5h-1a.5.5 0 0 0-.5.5v1.293z"/>
        <path d="M16 12.5a3.5 3.5 0 1 1-7 0 3.5 3.5 0 0 1 7 0m-3.5-2a.5.5 0 0 0-.5.5v1h-1a.5.5 0 0 0 0 1h1v1a.5.5 0 1 0 1 0v-1h1a.5.5 0 1 0 0-1h-1v-1a.5.5 0 0 0-.5-.5"/>
    </symbol>

    <symbol id="tour">
        <path d="M13 2.5a1.5 1.5 0 0 1 3 0v11a1.5 1.5 0 0 1-3 0v-.214c-2.162-1.241-4.49-1.843-6.912-2.083l.405 2.712A1 1 0 0 1 5.51 15.1h-.548a1 1 0 0 1-.916-.599l-1.85-3.49-.202-.003A2.014 2.014 0 0 1 0 9V7a2.02 2.02 0 0 1 1.992-2.013 75 75 0 0 0 2.483-.075c3.043-.154 6.148-.849 8.525-2.199zm1 0v11a.5.5 0 0 0 1 0v-11a.5.5 0 0 0-1 0m-1 1.35c-2.344 1.205-5.209 1.842-8 2.033v4.233q.27.015.537.036c2.568.189 5.093.744 7.463 1.993zm-9 6.215v-4.13a95 95 0 0 1-1.992.052A1.02 1.02 0 0 0 1 7v2c0 .55.448 1.002 1.006 1.009A61 61 0 0 1 4 10.065m-.657.975 1.609 3.037.01.024h.548l-.002-.014-.443-2.966a68 68 0 0 0-1.722-.082z"/>
    </symbol>

    <symbol id="transporte">
        <path d="M5.621 1.485c1.815-.454 2.943-.454 4.758 0 .784.196 1.743.673 2.527 1.119.688.39 1.094 1.148 1.094 1.979V13.5a1.5 1.5 0 0 1-1.5 1.5h-9A1.5 1.5 0 0 1 2 13.5V4.583c0-.831.406-1.588 1.094-1.98.784-.445 1.744-.922 2.527-1.118m5-.97C8.647.02 7.353.02 5.38.515c-.924.23-1.982.766-2.78 1.22C1.566 2.322 1 3.432 1 4.582V13.5A2.5 2.5 0 0 0 3.5 16h9a2.5 2.5 0 0 0 2.5-2.5V4.583c0-1.15-.565-2.26-1.6-2.849-.797-.453-1.855-.988-2.779-1.22ZM5 13a1 1 0 1 1-2 0 1 1 0 0 1 2 0m0 0a1 1 0 1 1 2 0 1 1 0 0 1-2 0m7 1a1 1 0 1 0-1-1 1 1 0 1 0-2 0 1 1 0 0 0 2 0 1 1 0 0 0 1 1M4.5 5a.5.5 0 0 0-.5.5v2a.5.5 0 0 0 .5.5h3V5zm4 0v3h3a.5.5 0 0 0 .5-.5v-2a.5.5 0 0 0-.5-.5zM3 5.5A1.5 1.5 0 0 1 4.5 4h7A1.5 1.5 0 0 1 13 5.5v2A1.5 1.5 0 0 1 11.5 9h-7A1.5 1.5 0 0 1 3 7.5zM6.5 2a.5.5 0 0 0 0 1h3a.5.5 0 0 0 0-1z"/>
    </symbol>

</svg>