<svg xmlns="http://www.w3.org/2000/svg">

    <symbol id="star">
        <path d="M3.612 15.443c-.386.198-.824-.149-.746-.592l.83-4.73L.173 6.765c-.329-.314-.158-.888.283-.95l4.898-.696L7.538.792c.197-.39.73-.39.927 0l2.184 4.327 4.898.696c.441.062.612.636.282.95l-3.522 3.356.83 4.73c.078.443-.36.79-.746.592L8 13.187l-4.389 2.256z"/>
    </symbol>

    <symbol id="geo">
        <path d="M8 16s6-5.686 6-10A6 6 0 0 0 2 6c0 4.314 6 10 6 10m0-7a3 3 0 1 1 0-6 3 3 0 0 1 0 6"/>
    </symbol>

    <symbol id="serv_one">
        <path d="M8.06 6.5a.5.5 0 0 1 .5.5v.776a11.5 11.5 0 0 1-.552 3.519l-1.331 4.14a.5.5 0 0 1-.952-.305l1.33-4.141a10.5 10.5 0 0 0 .504-3.213V7a.5.5 0 0 1 .5-.5Z"/>
        <path d="M6.06 7a2 2 0 1 1 4 0 .5.5 0 1 1-1 0 1 1 0 1 0-2 0v.332q0 .613-.066 1.221A.5.5 0 0 1 6 8.447q.06-.555.06-1.115zm3.509 1a.5.5 0 0 1 .487.513 11.5 11.5 0 0 1-.587 3.339l-1.266 3.8a.5.5 0 0 1-.949-.317l1.267-3.8a10.5 10.5 0 0 0 .535-3.048A.5.5 0 0 1 9.569 8m-3.356 2.115a.5.5 0 0 1 .33.626L5.24 14.939a.5.5 0 1 1-.955-.296l1.303-4.199a.5.5 0 0 1 .625-.329"/>
        <path d="M4.759 5.833A3.501 3.501 0 0 1 11.559 7a.5.5 0 0 1-1 0 2.5 2.5 0 0 0-4.857-.833.5.5 0 1 1-.943-.334m.3 1.67a.5.5 0 0 1 .449.546 10.7 10.7 0 0 1-.4 2.031l-1.222 4.072a.5.5 0 1 1-.958-.287L4.15 9.793a9.7 9.7 0 0 0 .363-1.842.5.5 0 0 1 .546-.449Zm6 .647a.5.5 0 0 1 .5.5c0 1.28-.213 2.552-.632 3.762l-1.09 3.145a.5.5 0 0 1-.944-.327l1.089-3.145c.382-1.105.578-2.266.578-3.435a.5.5 0 0 1 .5-.5Z"/>
        <path d="M3.902 4.222a5 5 0 0 1 5.202-2.113.5.5 0 0 1-.208.979 4 4 0 0 0-4.163 1.69.5.5 0 0 1-.831-.556m6.72-.955a.5.5 0 0 1 .705-.052A4.99 4.99 0 0 1 13.059 7v1.5a.5.5 0 1 1-1 0V7a3.99 3.99 0 0 0-1.386-3.028.5.5 0 0 1-.051-.705M3.68 5.842a.5.5 0 0 1 .422.568q-.044.289-.044.59c0 .71-.1 1.417-.298 2.1l-1.14 3.923a.5.5 0 1 1-.96-.279L2.8 8.821A6.5 6.5 0 0 0 3.058 7q0-.375.054-.736a.5.5 0 0 1 .568-.422m8.882 3.66a.5.5 0 0 1 .456.54c-.084 1-.298 1.986-.64 2.934l-.744 2.068a.5.5 0 0 1-.941-.338l.745-2.07a10.5 10.5 0 0 0 .584-2.678.5.5 0 0 1 .54-.456"/>
        <path d="M4.81 1.37A6.5 6.5 0 0 1 14.56 7a.5.5 0 1 1-1 0 5.5 5.5 0 0 0-8.25-4.765.5.5 0 0 1-.5-.865m-.89 1.257a.5.5 0 0 1 .04.706A5.48 5.48 0 0 0 2.56 7a.5.5 0 0 1-1 0c0-1.664.626-3.184 1.655-4.333a.5.5 0 0 1 .706-.04ZM1.915 8.02a.5.5 0 0 1 .346.616l-.779 2.767a.5.5 0 1 1-.962-.27l.778-2.767a.5.5 0 0 1 .617-.346m12.15.481a.5.5 0 0 1 .49.51c-.03 1.499-.161 3.025-.727 4.533l-.07.187a.5.5 0 0 1-.936-.351l.07-.187c.506-1.35.634-2.74.663-4.202a.5.5 0 0 1 .51-.49"/>
    </symbol>

    <symbol id="serv_two">
        <path d="M2 1.5a.5.5 0 0 1 .5-.5h3a.5.5 0 0 1 .5.5V5h.5A1.5 1.5 0 0 1 8 6.5V7H7v-.5a.5.5 0 0 0-.5-.5h-5a.5.5 0 0 0-.5.5v7a.5.5 0 0 0 .5.5H4v1H2.5v.25a.75.75 0 0 1-1.5 0v-.335A1.5 1.5 0 0 1 0 13.5v-7A1.5 1.5 0 0 1 1.5 5H2zM3 5h2V2H3z"/>
        <path d="M2.5 7a.5.5 0 0 1 .5.5v5a.5.5 0 0 1-1 0v-5a.5.5 0 0 1 .5-.5m10 1v-.5A1.5 1.5 0 0 0 11 6h-1a1.5 1.5 0 0 0-1.5 1.5V8H8v8h5V8zM10 7h1a.5.5 0 0 1 .5.5V8h-2v-.5A.5.5 0 0 1 10 7M5 9.5A1.5 1.5 0 0 1 6.5 8H7v8h-.5A1.5 1.5 0 0 1 5 14.5zm9 6.5V8h.5A1.5 1.5 0 0 1 16 9.5v5a1.5 1.5 0 0 1-1.5 1.5z"/>>
    </symbol>

    <symbol id="serv_three">
          <path d="M3 2.5a2.5 2.5 0 0 1 5 0 2.5 2.5 0 0 1 5 0v.006c0 .07 0 .27-.038.494H15a1 1 0 0 1 1 1v1a1 1 0 0 1-1 1H1a1 1 0 0 1-1-1V4a1 1 0 0 1 1-1h2.038A3 3 0 0 1 3 2.506zm1.068.5H7v-.5a1.5 1.5 0 1 0-3 0c0 .085.002.274.045.43zM9 3h2.932l.023-.07c.043-.156.045-.345.045-.43a1.5 1.5 0 0 0-3 0zm6 4v7.5a1.5 1.5 0 0 1-1.5 1.5H9V7zM2.5 16A1.5 1.5 0 0 1 1 14.5V7h6v9z"/>
    </symbol>

    <symbol id="serv_four">
        <path d="M8 1a5 5 0 0 0-5 5v1h1a1 1 0 0 1 1 1v3a1 1 0 0 1-1 1H3a1 1 0 0 1-1-1V6a6 6 0 1 1 12 0v6a2.5 2.5 0 0 1-2.5 2.5H9.366a1 1 0 0 1-.866.5h-1a1 1 0 1 1 0-2h1a1 1 0 0 1 .866.5H11.5A1.5 1.5 0 0 0 13 12h-1a1 1 0 0 1-1-1V8a1 1 0 0 1 1-1h1V6a5 5 0 0 0-5-5"/>
    </symbol>

    <symbol id="header">
        <path fill-rule="evenodd" d="M2.5 12a.5.5 0 0 1 .5-.5h10a.5.5 0 0 1 0 1H3a.5.5 0 0 1-.5-.5m0-4a.5.5 0 0 1 .5-.5h10a.5.5 0 0 1 0 1H3a.5.5 0 0 1-.5-.5m0-4a.5.5 0 0 1 .5-.5h10a.5.5 0 0 1 0 1H3a.5.5 0 0 1-.5-.5"/>
    </symbol>

    <symbol id="header_close">
        <path d="M8 15A7 7 0 1 1 8 1a7 7 0 0 1 0 14m0 1A8 8 0 1 0 8 0a8 8 0 0 0 0 16"/>
        <path d="M4.646 4.646a.5.5 0 0 1 .708 0L8 7.293l2.646-2.647a.5.5 0 0 1 .708.708L8.707 8l2.647 2.646a.5.5 0 0 1-.708.708L8 8.707l-2.646 2.647a.5.5 0 0 1-.708-.708L7.293 8 4.646 5.354a.5.5 0 0 1 0-.708"/>
    </symbol>

    <symbol id="phone">
        <path d="M15.854.146a.5.5 0 0 1 0 .708L11.707 5H14.5a.5.5 0 0 1 0 1h-4a.5.5 0 0 1-.5-.5v-4a.5.5 0 0 1 1 0v2.793L15.146.146a.5.5 0 0 1 .708 0m-12.2 1.182a.678.678 0 0 0-1.015-.063L1.605 2.3c-.483.484-.661 1.169-.45 1.77a17.6 17.6 0 0 0 4.168 6.608 17.6 17.6 0 0 0 6.608 4.168c.601.211 1.286.033 1.77-.45l1.034-1.034a.678.678 0 0 0-.063-1.015l-2.307-1.794a.68.68 0 0 0-.58-.122l-2.19.547a1.75 1.75 0 0 1-1.657-.459L5.482 8.062a1.75 1.75 0 0 1-.46-1.657l.548-2.19a.68.68 0 0 0-.122-.58zM1.884.511a1.745 1.745 0 0 1 2.612.163L6.29 2.98c.329.423.445.974.315 1.494l-.547 2.19a.68.68 0 0 0 .178.643l2.457 2.457a.68.68 0 0 0 .644.178l2.189-.547a1.75 1.75 0 0 1 1.494.315l2.306 1.794c.829.645.905 1.87.163 2.611l-1.034 1.034c-.74.74-1.846 1.065-2.877.702a18.6 18.6 0 0 1-7.01-4.42 18.6 18.6 0 0 1-4.42-7.009c-.362-1.03-.037-2.137.703-2.877z"/>
    </symbol>

    <symbol id="envelope">
        <path d="M0 4a2 2 0 0 1 2-2h12a2 2 0 0 1 2 2v8a2 2 0 0 1-2 2H2a2 2 0 0 1-2-2zm2-1a1 1 0 0 0-1 1v.217l7 4.2 7-4.2V4a1 1 0 0 0-1-1zm13 2.383-4.708 2.825L15 11.105zm-.034 6.876-5.64-3.471L8 9.583l-1.326-.795-5.64 3.47A1 1 0 0 0 2 13h12a1 1 0 0 0 .966-.741M1 11.105l4.708-2.897L1 5.383z"/>
    </symbol>

    <symbol id="geo-white">
        <path d="M12.166 8.94c-.524 1.062-1.234 2.12-1.96 3.07A32 32 0 0 1 8 14.58a32 32 0 0 1-2.206-2.57c-.726-.95-1.436-2.008-1.96-3.07C3.304 7.867 3 6.862 3 6a5 5 0 0 1 10 0c0 .862-.305 1.867-.834 2.94M8 16s6-5.686 6-10A6 6 0 0 0 2 6c0 4.314 6 10 6 10"/>
        <path d="M8 8a2 2 0 1 1 0-4 2 2 0 0 1 0 4m0 1a3 3 0 1 0 0-6 3 3 0 0 0 0 6"/>
    </symbol>

    <symbol id="arrow">
        <path d="M8 0a8 8 0 1 1 0 16A8 8 0 0 1 8 0M4.5 7.5a.5.5 0 0 0 0 1h5.793l-2.147 2.146a.5.5 0 0 0 .708.708l3-3a.5.5 0 0 0 0-.708l-3-3a.5.5 0 1 0-.708.708L10.293 7.5z"/>
    </symbol>

    <symbol id="time">
        <path d="M8 3.5a.5.5 0 0 0-1 0V9a.5.5 0 0 0 .252.434l3.5 2a.5.5 0 0 0 .496-.868L8 8.71z"/>
        <path d="M8 16A8 8 0 1 0 8 0a8 8 0 0 0 0 16m7-8A7 7 0 1 1 1 8a7 7 0 0 1 14 0"/>
    </symbol>

    <symbol id="contact">
        <path d="M14 1a1 1 0 0 1 1 1v8a1 1 0 0 1-1 1h-2.5a2 2 0 0 0-1.6.8L8 14.333 6.1 11.8a2 2 0 0 0-1.6-.8H2a1 1 0 0 1-1-1V2a1 1 0 0 1 1-1zM2 0a2 2 0 0 0-2 2v8a2 2 0 0 0 2 2h2.5a1 1 0 0 1 .8.4l1.9 2.533a1 1 0 0 0 1.6 0l1.9-2.533a1 1 0 0 1 .8-.4H14a2 2 0 0 0 2-2V2a2 2 0 0 0-2-2z"/>
        <path d="M3 3.5a.5.5 0 0 1 .5-.5h9a.5.5 0 0 1 0 1h-9a.5.5 0 0 1-.5-.5M3 6a.5.5 0 0 1 .5-.5h9a.5.5 0 0 1 0 1h-9A.5.5 0 0 1 3 6m0 2.5a.5.5 0 0 1 .5-.5h5a.5.5 0 0 1 0 1h-5a.5.5 0 0 1-.5-.5"/>
    </symbol>

    <symbol id="place">
        <path fill-rule="evenodd" d="M3.1 11.2a.5.5 0 0 1 .4-.2H6a.5.5 0 0 1 0 1H3.75L1.5 15h13l-2.25-3H10a.5.5 0 0 1 0-1h2.5a.5.5 0 0 1 .4.2l3 4a.5.5 0 0 1-.4.8H.5a.5.5 0 0 1-.4-.8z"/>
        <path fill-rule="evenodd" d="M8 1a3 3 0 1 0 0 6 3 3 0 0 0 0-6M4 4a4 4 0 1 1 4.5 3.969V13.5a.5.5 0 0 1-1 0V7.97A4 4 0 0 1 4 3.999z"/>
    </symbol>

    <symbol id="edit">
        <path d="M15.502 1.94a.5.5 0 0 1 0 .706L14.459 3.69l-2-2L13.502.646a.5.5 0 0 1 .707 0l1.293 1.293zm-1.75 2.456-2-2L4.939 9.21a.5.5 0 0 0-.121.196l-.805 2.414a.25.25 0 0 0 .316.316l2.414-.805a.5.5 0 0 0 .196-.12l6.813-6.814z"/>
        <path fill-rule="evenodd" d="M1 13.5A1.5 1.5 0 0 0 2.5 15h11a1.5 1.5 0 0 0 1.5-1.5v-6a.5.5 0 0 0-1 0v6a.5.5 0 0 1-.5.5h-11a.5.5 0 0 1-.5-.5v-11a.5.5 0 0 1 .5-.5H9a.5.5 0 0 0 0-1H2.5A1.5 1.5 0 0 0 1 2.5z"/>
    </symbol>

    <symbol id="passport">
        <path d="M8 5a3 3 0 1 0 0 6 3 3 0 0 0 0-6M6 8a2 2 0 1 1 4 0 2 2 0 0 1-4 0m-.5 4a.5.5 0 0 0 0 1h5a.5.5 0 0 0 0-1z"/>
        <path d="M3.232 1.776A1.5 1.5 0 0 0 2 3.252v10.95c0 .445.191.838.49 1.11.367.422.908.688 1.51.688h8a2 2 0 0 0 2-2V4a2 2 0 0 0-1-1.732v-.47A1.5 1.5 0 0 0 11.232.321l-8 1.454ZM4 3h8a1 1 0 0 1 1 1v10a1 1 0 0 1-1 1H4a1 1 0 0 1-1-1V4a1 1 0 0 1 1-1"/>
    </symbol>

</svg>